<?xml version="1.0" encoding="UTF-8" standalone="no"?><!DOCTYPE svg PUBLIC "-//W3C//DTD SVG 1.1//EN" "http://www.w3.org/Graphics/SVG/1.1/DTD/svg11.dtd"><svg width="100%" height="100%" viewBox="0 0 1707 800" version="1.1" xmlns="http://www.w3.org/2000/svg" xmlns:xlink="http://www.w3.org/1999/xlink" xml:space="preserve" xmlns:serif="http://www.serif.com/" style="fill-rule:evenodd;clip-rule:evenodd;stroke-linejoin:round;stroke-miterlimit:2;"><g><g><rect x="30.667" y="400" width="1645.33" height="18.8" style="fill:#aa0034;"/><rect x="30.667" y="432.085" width="1645.33" height="18.8" style="fill:#aa0034;"/><rect x="30.667" y="464.17" width="1645.33" height="18.8" style="fill:#aa0034;"/></g><g><path d="M456.458,493.159l-58.674,0l-0,58.768l58.674,-0l-0,-58.768Zm143.993,0l-81.652,0l0,58.768l58.674,-0l0,-53.54l22.978,-5.228Zm567.43,0l-58.674,0l0,29.431l29.337,29.337l190.691,-0l-0,-58.674l-161.354,-0l0,-0.094Zm-990.125,0l-58.674,0l-0,58.768l58.674,-0l0,-58.768Zm136.851,0l-62.278,0l28.107,58.768l62.341,-0l-28.17,-58.768Zm1120.98,0l-58.674,0l-0,58.768l58.674,-0l-0,-58.768Zm161.353,0l-58.674,0l0,58.768l58.674,-0l0,-58.768Zm-550.069,0l-58.674,0l-0,0.094l-139.351,-0l-0,-0.094l-58.674,0l-0,29.431l29.337,29.337l198.025,-0l29.337,-29.337l-0,-29.431Z" style="fill:#fff;"/><path d="M335.053,408.069l-126.275,-0l-35.079,8.018l-0,-8.018l-58.674,-0l-0,70.265l58.674,0l-0,-2.106l66.375,-15.035l8.198,17.141l62.278,0l-14.369,-29.976l16.135,-3.667l22.737,-28.604l-0,-8.018Zm117.348,70.265l-58.674,0l-0,-70.265l58.674,-0l-0,70.265Zm282.369,-70.265l-94.187,-0l-67.167,15.352l0,-15.352l-58.674,-0l0,70.265l81.652,0l115.64,-26.309l22.736,-28.604l-0,-15.352Zm110.014,70.265l-58.674,0l-0,-70.265l58.674,-0l-0,70.265Zm198.025,-69.581l-0.684,-0.684l-127.666,-0l0,30.021l69.676,-0l-0,40.244l58.674,0l-0,-69.581Zm245.698,-0.684l-182.673,-0l-0.684,0.684l-0,69.581l58.674,0l0,-40.244l124.683,-0l-0,-30.021Zm143.018,70.265l-58.675,0l0,-70.265l58.675,-0l-0,70.265Zm75.163,-70.265l86.19,-0l0,70.265l-58.674,0l0,-50.512l-27.516,-19.753Z" style="fill:#0c0c0c;"/><path d="M168.405,393.244l-58.674,0l0,-70.265l220.028,-0l0,70.265l-131.25,0l72.576,-16.588l-0,-53.541l-102.68,0l0,70.129Zm278.702,0l-58.674,0l0,-70.265l58.674,-0l0,70.265Zm121.016,0l-58.675,0l0,-70.265l220.028,-0l0,70.265l-99.162,0l40.488,-9.254l0,-60.875l-102.679,0l-0,70.129Zm454.724,-70.265l-242.031,-0l0,70.265l58.674,0l0,-70.129l183.357,0l-0,-0.136Zm-113.681,70.265l128.349,0l0,-0.453l-29.337,-29.337l-99.012,-0l-0,29.79Zm410.718,-70.265l-211.19,-0l16.466,44.509l-25.304,25.303l0,0.453l183.357,0l-0,-29.79l-96.812,-0l-15.036,-40.339l148.519,0l0,-0.136Zm209.027,-0l58.674,-0l-0,70.265l-84.607,0l-76.747,-55.093l-0,55.093l-58.674,0l-0,-70.265l138.207,-0l23.147,16.638l-0,-16.638Z" style="fill:#fff;"/><path d="M109.731,313.945l220.028,-0l0,-29.2l-29.337,-29.337l-161.354,-0l-29.337,29.337l0,29.2Zm337.376,-0l0,-58.537l-58.674,-0l0,58.537l58.674,-0Zm62.341,-0l220.028,-0l0,-29.2l-29.337,-29.337l-161.354,-0l-29.337,29.337l0,29.2Zm513.399,-0l-0,-58.537l-212.694,-0l-29.337,29.337l0,29.2l242.031,-0Zm297.037,-0l0,-58.537l-190.691,-0l-27.503,39.605l7.004,18.932l211.19,-0Zm84.526,-60.897l9.719,-4.975l6.921,4.975l84.714,60.897l-138.207,-0l-0,-42.035l36.853,-18.862Zm183.175,60.897l-0,-58.537l-58.674,-0l-0,58.537l58.674,-0Z" style="fill:#fff;"/></g></g></svg>